<svg viewBox="0 0 464 232" xmlns="http://www.w3.org/2000/svg" font-family="Arial, Helvetica, sans-serif" font-weight="700">
  <!-- Row 1 -->
  <g transform="translate(0,0)">
    <rect width="64" height="64" rx="12" fill="#1e88e5"/>
    <text x="32" y="40" font-size="20" fill="#fff" text-anchor="middle">GL</text>
  </g>
  <g transform="translate(80,0)">
    <rect width="64" height="64" rx="12" fill="#111111"/>
    <path d="M32 14 L44 32 L32 50 L20 32 Z" fill="#ad1731"/>
  </g>
  <g transform="translate(160,0)">
    <rect width="64" height="64" rx="12" fill="#3b6e2c"/>
    <path d="M18 46 Q24 18 32 46 Q40 18 46 46" stroke="#fff" stroke-width="4" fill="none" stroke-linecap="round"/>
  </g>
  <g transform="translate(240,0)">
    <rect width="64" height="64" rx="12" fill="#150458"/>
    <text x="32" y="40" font-size="18" fill="#e70488" text-anchor="middle">pd</text>
  </g>
  <g transform="translate(320,0)">
    <rect width="64" height="64" rx="12" fill="#1f2937"/>
    <text x="32" y="42" font-size="26" fill="#3b7a3b" text-anchor="middle">&#963;</text>
  </g>
  <g transform="translate(400,0)">
    <rect width="64" height="64" rx="12" fill="#0d3b3b"/>
    <text x="32" y="38" font-size="15" fill="#2dd4bf" text-anchor="middle">cvx</text>
  </g>

  <!-- Row 2 -->
  <g transform="translate(0,80)">
    <rect width="64" height="64" rx="12" fill="#0b3d1e"/>
    <circle cx="32" cy="32" r="4" fill="#8bd15a"/>
    <path d="M32 32 L44 20 M32 32 L44 44 M32 32 L20 44 M32 32 L14 28" stroke="#8bd15a" stroke-width="3" fill="none" stroke-linecap="round"/>
  </g>
  <g transform="translate(80,80)">
    <rect width="64" height="64" rx="12" fill="#134e4a"/>
    <text x="32" y="30" font-size="14" fill="#5eead4" text-anchor="middle">x[ ]</text>
    <text x="32" y="46" font-size="10" fill="#5eead4" text-anchor="middle">array</text>
  </g>
  <g transform="translate(160,80)">
    <rect width="64" height="64" rx="12" fill="#0b1f3a"/>
    <path d="M32 14 L46 32 L32 50 L18 32 Z" fill="#fff"/>
    <path d="M32 22 L40 32 L32 42 L24 32 Z" fill="#0b1f3a"/>
  </g>
  <g transform="translate(240,80)">
    <rect width="64" height="64" rx="12" fill="#e8412c"/>
    <rect x="14" y="14" width="14" height="14" fill="#fff" opacity="0.9"/>
    <rect x="30" y="30" width="14" height="14" fill="#fff" opacity="0.6"/>
    <rect x="14" y="30" width="14" height="14" fill="#fff" opacity="0.3"/>
  </g>
  <g transform="translate(320,80)">
    <rect width="64" height="64" rx="12" fill="#2a2a2a"/>
    <text x="32" y="30" font-size="13" fill="#ffd43b" text-anchor="middle">py</text>
    <text x="32" y="46" font-size="13" fill="#4b8bbe" text-anchor="middle">bind</text>
  </g>
  <g transform="translate(400,80)">
    <rect width="64" height="64" rx="12" fill="#2b2b2b"/>
    <text x="32" y="40" font-size="20" fill="#ffd43b" text-anchor="middle">Cy</text>
  </g>

  <!-- Row 3 -->
  <g transform="translate(0,160)">
    <rect width="64" height="64" rx="12" fill="#0b2e4f"/>
    <path d="M22 44 L30 22 L36 38 L42 20" stroke="#00b3f0" stroke-width="4" fill="none" stroke-linecap="round" stroke-linejoin="round"/>
  </g>
  <g transform="translate(80,160)">
    <rect width="64" height="64" rx="12" fill="#09a3d5"/>
    <path d="M14 26 Q32 14 50 26 Q32 34 14 26 Z" fill="#fff"/>
    <path d="M14 40 Q32 30 50 40 Q32 48 14 40 Z" fill="#fff" opacity="0.7"/>
  </g>
  <g transform="translate(160,160)">
    <rect width="64" height="64" rx="12" fill="#154360"/>
    <ellipse cx="32" cy="32" rx="16" ry="10" fill="none" stroke="#a9cce3" stroke-width="3"/>
    <circle cx="32" cy="32" r="4" fill="#a9cce3"/>
  </g>
  <g transform="translate(240,160)">
    <rect width="64" height="64" rx="12" fill="#6c2eb5"/>
    <path d="M32 16 L32 32 M32 32 L20 48 M32 32 L44 48" stroke="#fff" stroke-width="4" fill="none" stroke-linecap="round"/>
    <circle cx="32" cy="14" r="4" fill="#fff"/>
    <circle cx="18" cy="50" r="4" fill="#fff"/>
    <circle cx="46" cy="50" r="4" fill="#fff"/>
  </g>
  <g transform="translate(320,160)">
    <rect width="64" height="64" rx="12" fill="#ffd54f"/>
    <path d="M18 34 L28 44 L46 22" stroke="#111" stroke-width="5" fill="none" stroke-linecap="round" stroke-linejoin="round"/>
  </g>
  <g transform="translate(400,160)">
    <rect width="64" height="64" rx="12" fill="#3a3a3a"/>
    <path d="M16 44 L16 26 L24 36 L32 26 L32 44" stroke="#fff" stroke-width="4" fill="none" stroke-linecap="round" stroke-linejoin="round"/>
    <text x="46" y="42" font-size="18" fill="#d7263d">$</text>
  </g>
</svg>
