<svg width="340" height="120" viewBox="0 0 340 120" xmlns="http://www.w3.org/2000/svg">
<g transform="translate(10,10)">
<rect width="100" height="100" rx="20" fill="#0b3d2e"/>
<circle cx="50" cy="55" r="26" fill="#3ddc84"/>
<ellipse cx="50" cy="55" rx="26" ry="10" fill="none" stroke="#0b3d2e" stroke-width="2"/>
<path d="M50 29 L50 81" stroke="#0b3d2e" stroke-width="2"/>
<circle cx="24" cy="36" r="7" fill="#3ddc84"/>
<circle cx="76" cy="36" r="7" fill="#3ddc84"/>
<circle cx="24" cy="76" r="7" fill="#3ddc84"/>
<circle cx="76" cy="76" r="7" fill="#3ddc84"/>
<path d="M50 81 Q42 92 30 90" fill="none" stroke="#3ddc84" stroke-width="6" stroke-linecap="round"/>
</g>
<g transform="translate(120,10)">
<rect width="100" height="100" rx="20" fill="#0d1b3d"/>
<circle cx="42" cy="42" r="16" fill="none" stroke="#4f8cff" stroke-width="6"/>
<path d="M53 53 L70 70" stroke="#4f8cff" stroke-width="7" stroke-linecap="round"/>
<circle cx="70" cy="30" r="5" fill="#4f8cff"/>
<circle cx="80" cy="45" r="5" fill="#4f8cff"/>
<circle cx="66" cy="55" r="5" fill="#4f8cff"/>
</g>
<g transform="translate(230,10)">
<rect width="100" height="100" rx="20" fill="#2b0d0d"/>
<path d="M35 65 L55 45 L60 50 L40 70 Z" fill="#e83b3b"/>
<circle cx="62" cy="42" r="9" fill="none" stroke="#e83b3b" stroke-width="5"/>
<path d="M35 65 L28 72 L32 76 L39 69 Z" fill="#e83b3b"/>
</g>
</svg>
